<svg xmlns="http://www.w3.org/2000/svg" width="284" height="279" viewBox="0 0 284 279" version="1.1"><path d="M 135.095 17.741 C 131.826 49.242, 126.808 73.054, 120.615 86.458 C 108.367 112.966, 88.650 122.382, 30.713 129.389 C 19.771 130.713, 12.576 131.967, 14 132.302 C 15.375 132.626, 23.025 133.622, 31 134.515 C 109.238 143.274, 124.294 158.124, 133.894 236 C 135.012 245.075, 136.059 253.850, 136.219 255.500 C 136.380 257.150, 137.316 251.750, 138.300 243.500 C 146.463 175.023, 156.800 155.712, 191.500 144.110 C 202.254 140.515, 222.114 136.741, 242 134.515 C 263.092 132.154, 263.302 131.908, 246 129.853 C 190.931 123.309, 170.218 115.127, 156.879 94.646 C 148.189 81.304, 142.735 58.788, 137.947 16.500 C 137.325 11, 136.703 6.384, 136.565 6.241 C 136.428 6.099, 135.766 11.274, 135.095 17.741 M 39.677 16.421 C 38.641 24.769, 35.878 30.495, 31.888 32.558 C 30.080 33.493, 25.428 34.804, 21.550 35.471 L 14.500 36.684 21.589 37.905 C 33.882 40.023, 37.392 43.423, 39.451 55.210 C 40.708 62.407, 40.733 62.449, 41.414 58.500 C 42.902 49.860, 44.416 45.738, 47.077 43.077 C 49.650 40.503, 51.738 39.702, 62.500 37.154 C 66.168 36.285, 66.251 36.197, 63.500 36.091 C 61.850 36.028, 58.025 35.323, 55 34.525 C 46.403 32.256, 44.149 29.039, 41.319 15 L 40.411 10.500 39.677 16.421 M 104.086 19.795 C 103.975 22.753, 99.753 26.975, 96.795 27.086 C 94.752 27.162, 94.809 27.265, 97.314 28.017 C 101.245 29.197, 102.865 30.757, 103.914 34.376 C 104.655 36.932, 104.836 37.082, 104.910 35.205 C 105.026 32.247, 109.247 28.026, 112.205 27.910 C 114.082 27.836, 113.932 27.655, 111.376 26.914 C 107.757 25.865, 106.197 24.245, 105.017 20.314 C 104.265 17.809, 104.162 17.752, 104.086 19.795 M 68 73.943 C 68 76.326, 64.436 78.964, 61.027 79.103 C 59.056 79.184, 59.355 79.433, 62.387 80.235 C 65.279 81, 66.550 81.997, 67.356 84.132 C 67.951 85.709, 68.691 87, 69 87 C 69.309 87, 70.049 85.709, 70.644 84.132 C 71.450 81.997, 72.721 81, 75.613 80.235 C 78.976 79.345, 79.129 79.193, 76.750 79.103 C 73.746 78.990, 70 75.881, 70 73.500 C 70 72.675, 69.550 72, 69 72 C 68.450 72, 68 72.874, 68 73.943 M 213.074 180.701 C 212.785 193.162, 208.204 200.028, 198.540 202.485 C 195.262 203.318, 191.437 204.042, 190.040 204.094 C 188.643 204.146, 190.425 204.780, 194 205.503 C 202.966 207.318, 205.278 208.353, 208.250 211.885 C 210.788 214.902, 212.905 222.066, 213.100 228.299 C 213.161 230.263, 213.846 228.379, 214.871 223.424 C 217.508 210.677, 220.181 208.024, 232.791 205.636 L 239.500 204.365 234 203.584 C 226.568 202.529, 220.549 199.768, 218.345 196.403 C 217.341 194.872, 215.762 189.992, 214.835 185.560 C 213.828 180.745, 213.119 178.789, 213.074 180.701" stroke="none" fill="#ffffffff" fill-rule="evenodd"/></svg>